<?xml version="1.0" encoding="utf-8" standalone="yes"?>
<!DOCTYPE svg PUBLIC "-//W3C//DTD SVG 1.1//EN" "http://www.w3.org/Graphics/SVG/1.1/DTD/svg11.dtd">
<svg xmlns="http://www.w3.org/2000/svg" xmlns:xlink="http://www.w3.org/1999/xlink" xmlns:dc="http://purl.org/dc/elements/1.1/" xmlns:cc="http://web.resource.org/cc/" xmlns:rdf="http://www.w3.org/1999/02/22-rdf-syntax-ns#" xmlns:sodipodi="http://sodipodi.sourceforge.net/DTD/sodipodi-0.dtd" xmlns:inkscape="http://www.inkscape.org/namespaces/inkscape" version="1.1" baseProfile="full" width="1024px" height="1024px" viewBox="0 0 1024 1024" preserveAspectRatio="xMidYMid meet" id="svg_document" style="zoom: 1;"><!-- Created with macSVG - https://macsvg.org/ - https://github.com/dsward2/macsvg/ --><title id="svg_document_title">Untitled.svg</title><defs id="svg_document_defs"></defs><g id="main_group"></g><svg xmlns="http://www.w3.org/2000/svg" width="502" height="75" viewBox="0 0 502 75" fill="none" id="svg1"><rect x="0.5" y="0.5" width="501" height="74" stroke="#FF0000"></rect><rect width="5" height="75" fill="#FF0000"><animate attributeName="width" attributeType="XML" begin="0s" dur="1s" calcMode="linear" repeatCount="1" additive="replace" accumulate="none" fill="freeze" id="redbox" from="0" to="510" keyTimes="0;1" keySplines="0.5 0 0.5 1"></animate></rect><path d="M213.522,32.648 V34.304 H206.484 V32.648 H213.522 M204.828,45.5 V39.686 H206.484 V45.5 H204.828 M204.828,38.03 V34.304 H206.484 V38.03 H204.828 M206.484,39.686 V38.03 H212.694 V39.686 H206.484 M220.151,45.5 V43.844 H218.495 V42.188 H220.151 V36.194 H221.807 V45.5 H220.151 M214.355,43.844 V36.194 H216.011 V43.844 H214.355 M216.011,45.5 V43.844 H218.495 V45.5 H216.011 M225.117,36.194 V37.85 H226.773 V39.506 H225.117 V45.5 H223.461 V36.194 H225.117 M226.773,37.85 V36.194 H229.257 V37.85 H226.773 M229.257,45.5 V37.85 H230.913 V45.5 H229.257 M238.362,43.844 V45.5 H235.878 V43.844 H238.362 M232.566,42.188 V39.506 H234.222 V42.188 H232.566 M234.222,43.844 V42.188 H235.878 V43.844 H234.222 M234.222,39.506 V37.85 H235.878 V39.506 H234.222 M235.878,37.85 V36.194 H238.362 V37.85 H235.878 M238.362,43.844 V42.188 H240.018 V39.506 H238.362 V37.85 H240.018 V32.666 H241.674 V45.5 H240.018 V43.844 H238.362 M244.98,36.194 V37.85 H246.636 V39.506 H244.98 V45.5 H243.324 V36.194 H244.98 M246.636,37.85 V36.194 H248.292 V37.85 H246.636 M251.607,41.162 V43.844 H249.951 V41.162 H251.607 M249.951,39.506 V37.85 H251.607 V39.506 H249.951 M251.607,45.5 V43.844 H256.161 V45.5 H251.607 M251.607,41.162 V39.506 H256.161 V37.85 H257.817 V43.844 H256.161 V41.162 H251.607 M251.607,37.85 V36.194 H256.161 V37.85 H251.607 M257.817,45.5 V43.844 H259.473 V45.5 H257.817 M262.787,36.194 V45.5 H261.131 V36.194 H262.787 M261.131,34.322 V32.666 H262.787 V34.322 H261.131 M264.435,43.844 V42.188 H266.091 V43.844 H264.435 M264.435,39.506 V37.85 H266.091 V39.506 H264.435 M266.091,45.5 V43.844 H270.231 V45.5 H266.091 M266.091,41.162 V39.506 H270.231 V41.162 H266.091 M266.091,37.85 V36.194 H270.231 V37.85 H266.091 M270.231,43.844 V41.162 H271.887 V43.844 H270.231 M275.197,36.194 V45.5 H273.541 V36.194 H275.197 M273.541,34.322 V32.666 H275.197 V34.322 H273.541 M278.502,36.194 V37.85 H280.158 V39.506 H278.502 V45.5 H276.846 V36.194 H278.502 M280.158,37.85 V36.194 H282.642 V37.85 H280.158 M282.642,45.5 V37.85 H284.298 V45.5 H282.642 M295.059,47.156 H293.403 V43.844 H291.747 V42.188 H293.403 V39.506 H291.747 V37.85 H293.403 V36.194 H295.059 V47.156 M285.951,42.188 V39.506 H287.607 V42.188 H285.951 M287.607,48.812 V47.156 H293.403 V48.812 H287.607 M287.607,43.844 V42.188 H289.263 V43.844 H287.607 M287.607,39.506 V37.85 H289.263 V39.506 H287.607 M289.263,45.5 V43.844 H291.747 V45.5 H289.263 M289.263,37.85 V36.194 H291.747 V37.85 H289.263 " fill="#FF0000"><animateColor additive="replace" values="red;white;white" begin="0s" id="textColor" attributeType="XML" accumulate="none" repeatCount="1" attributeName="fill" fill="freeze" dur="1s"></animateColor></path></svg></svg>